<svg xmlns="http://www.w3.org/2000/svg" version="1.1" xmlns:xlink="http://www.w3.org/1999/xlink" xmlns:svgjs="http://svgjs.dev/svgjs" width="64" height="64" viewBox="0 0 1000 1000"><rect width="1000" height="1000" fill="#0093fb"></rect><g transform="matrix(0.7,0,0,0.7,149.98023307444822,199.24372469635625)"><svg viewBox="0 0 287 247" data-background-color="#0093fb" preserveAspectRatio="xMidYMid meet" height="860" width="1000" xmlns="http://www.w3.org/2000/svg" xmlns:xlink="http://www.w3.org/1999/xlink"><g id="tight-bounds" transform="matrix(1,0,0,1,0.008104439476227299,-0.09999999999999432)"><svg viewBox="0 0 286.98379112104755 247.2" height="247.2" width="286.98379112104755"><g><svg viewBox="0 0 286.98379112104755 247.2" height="247.2" width="286.98379112104755"><g><svg viewBox="0 0 286.98379112104755 247.2" height="247.2" width="286.98379112104755"><g id="textblocktransform"><svg viewBox="0 0 286.98379112104755 247.2" height="247.2" width="286.98379112104755" id="textblock"><g><svg viewBox="0 0 286.98379112104755 247.2" height="247.2" width="286.98379112104755"><g transform="matrix(1,0,0,1,0,0)"><svg width="286.98379112104755" viewBox="-0.2700002193450928 -33.08000183105469 170.3900146484375 143.760009765625" height="247.2" data-palette-color="#ffffff"><svg></svg><svg></svg><svg></svg><svg></svg><g class="undefined-text-0" data-fill-palette-color="primary" id="text-0"><path xmlns="http://www.w3.org/2000/svg" d="M8.86-7.03l-2.29 7.23c-1.4-0.133-3.037-0.2-4.91-0.2v0h-1.93l10.62-29.76c0.473-1.333 0.71-2.11 0.71-2.33 0-0.22-0.007-0.357-0.02-0.41v0l0.02-0.04c1.06 0.047 2.183 0.07 3.37 0.07v0c0.973 0 2.143-0.017 3.51-0.05v0l0.03 0.05c-0.033 0.067-0.05 0.157-0.05 0.27v0c0 0.307 0.243 1.127 0.73 2.46v0l10.84 29.81c-0.327-0.013-0.71-0.02-1.15-0.02v0c0 0-0.42-0.017-1.26-0.05v0c-0.413 0-0.78 0-1.1 0v0h-3.79l-2.29-7.03zM10.72-12.89h7.27l-3.68-11.35zM40.01-20.58v20.73c-0.78-0.1-2.283-0.15-4.51-0.15v0h-1.96v-32.57c1.047 0.067 2.197 0.1 3.45 0.1 1.253 0 2.14-0.067 2.66-0.2v0l8.2 13.94 7.89-13.94c0.52 0.133 1.513 0.2 2.98 0.2 1.46 0 2.713-0.033 3.76-0.1v0 32.57h-1.96c-2.227 0-3.73 0.05-4.51 0.15v0-21.88l-7.99 14.28zM89.5-12.82v-19.77c1.013 0.08 1.853 0.12 2.52 0.12v0h2.02c0.687 0 1.403-0.067 2.15-0.2v0 20.19c0 4.007-1.213 7.223-3.64 9.65v0c-2.293 2.293-5.173 3.44-8.64 3.44v0c-3.793 0-6.86-0.983-9.2-2.95v0c-2.62-2.213-3.93-5.403-3.93-9.57v0-20.68c1.347 0.08 2.62 0.12 3.82 0.12 1.193 0 2.18-0.067 2.96-0.2v0 21.07c0 2.053 0.627 3.65 1.88 4.79v0c1.173 1.04 2.64 1.56 4.4 1.56v0c2.6 0 4.333-1.333 5.2-4v0c0.307-0.96 0.46-2.15 0.46-3.57zM111.47 0h-2.31c-2.393 0-3.983 0.05-4.77 0.15v0-32.77c0.393 0.1 1.203 0.15 2.43 0.15 1.233 0 2.663-0.033 4.29-0.1v0 26.71h5.05c1.467 0 2.64-0.05 3.52-0.15v0c-0.113 3.813-0.17 5.793-0.17 5.94v0 0.24c-1.6-0.113-4.28-0.17-8.04-0.17zM131.64-5.86h9.96c1.013 0 1.713-0.097 2.1-0.29v0l0.1 0.02-0.25 6.13h-18.28v-32.64c0.44 0.033 0.927 0.057 1.46 0.07v0l1.71 0.05c1.14 0.033 2.377 0.05 3.71 0.05v0c3.727 0 7.413-0.067 11.06-0.2v0c-0.18 1.433-0.27 3.347-0.27 5.74v0c0 0.26 0.017 0.457 0.05 0.59v0l-0.05 0.07c-0.847-0.247-2.05-0.37-3.61-0.37v0h-7.69v6.23h5.79c1.787 0 2.86-0.05 3.22-0.15v0l0.07 6.03c-0.78-0.08-1.787-0.12-3.02-0.12v0h-6.06zM162.04-27v27.15c-0.787-0.1-2.797-0.15-6.03-0.15v0h-0.79v-27h-4.83c-1.433 0-2.28 0.073-2.54 0.22-0.26 0.147-0.463 0.277-0.61 0.39v0l-0.07-0.03v-6.25l0.07-0.07c0.54 0.18 1.99 0.27 4.35 0.27v0h15.3c1.433 0 2.28-0.073 2.54-0.22 0.26-0.147 0.463-0.277 0.61-0.39v0l0.08 0.02v6.25l-0.08 0.08c-0.533-0.18-1.98-0.27-4.34-0.27v0z" fill="#ffffff" fill-rule="nonzero" stroke="none" stroke-width="1" stroke-linecap="butt" stroke-linejoin="miter" stroke-miterlimit="10" stroke-dasharray="" stroke-dashoffset="0" font-family="none" font-weight="none" font-size="none" text-anchor="none" style="mix-blend-mode: normal" data-fill-palette-color="primary" opacity="1"></path><path xmlns="http://www.w3.org/2000/svg" d="M6.86 32.83c-1.48-1.413-2.647-3.113-3.5-5.1-0.853-1.987-1.28-4.163-1.28-6.53 0-2.367 0.397-4.61 1.19-6.73 0.8-2.113 1.94-3.977 3.42-5.59 1.48-1.607 3.27-2.887 5.37-3.84 2.1-0.953 4.453-1.43 7.06-1.43v0c4.487 0 8.27 1.417 11.35 4.25v0c3.287 3.027 4.93 7.11 4.93 12.25v0c0 4.98-1.693 9.123-5.08 12.43v0c-2.08 2.033-4.56 3.433-7.44 4.2v0c-1.42 0.373-3.077 0.56-4.97 0.56-1.9 0-3.847-0.39-5.84-1.17-1.993-0.78-3.73-1.88-5.21-3.3zM8.86 20.87v0c0 1.513 0.253 2.903 0.76 4.17 0.507 1.273 1.207 2.367 2.1 3.28v0c1.907 1.92 4.357 2.88 7.35 2.88v0c2.847 0 5.133-0.92 6.86-2.76v0c1.753-1.907 2.63-4.503 2.63-7.79v0c0-3.093-0.837-5.673-2.51-7.74v0c-1.807-2.213-4.28-3.32-7.42-3.32v0c-3.047 0-5.463 1.123-7.25 3.37v0c-1.68 2.1-2.52 4.737-2.52 7.91zM58.72 16.62l0.07 6.03c-0.78-0.08-1.79-0.12-3.03-0.12v0h-7.4v14.16h-6.69v-32.64c0.44 0.033 0.947 0.057 1.52 0.07v0l1.81 0.05c1.233 0.033 2.517 0.05 3.85 0.05v0c4.007 0 7.833-0.067 11.48-0.2v0c-0.18 1.433-0.27 3.347-0.27 5.74v0c0 0.26 0.017 0.457 0.05 0.59v0l-0.05 0.07c-0.867-0.247-2.07-0.37-3.61-0.37v0h-8.09v6.72h7.13c1.793 0 2.87-0.05 3.23-0.15z" fill="#ffffff" fill-rule="nonzero" stroke="none" stroke-width="1" stroke-linecap="butt" stroke-linejoin="miter" stroke-miterlimit="10" stroke-dasharray="" stroke-dashoffset="0" font-family="none" font-weight="none" font-size="none" text-anchor="none" style="mix-blend-mode: normal" data-fill-palette-color="primary" opacity="1"></path><path xmlns="http://www.w3.org/2000/svg" d="M18.75 40.3v0c3.047 0 5.643 0.53 7.79 1.59v0 7.47l-0.05 0.05c-0.913-1.4-2.833-2.33-5.76-2.79v0c-0.867-0.147-1.957-0.22-3.27-0.22-1.32 0-2.617 0.25-3.89 0.75-1.267 0.493-2.307 1.197-3.12 2.11v0c-1.58 1.773-2.37 4.303-2.37 7.59v0c0 3.827 1 6.677 3 8.55v0c1.66 1.56 3.86 2.34 6.6 2.34v0c3.087 0 5.593-0.66 7.52-1.98v0c0.7-0.473 1.293-1.06 1.78-1.76v0l0.07 0.05v6.84c-2.487 2.067-5.84 3.1-10.06 3.1v0c-4.96 0-8.85-1.58-11.67-4.74v0c-2.7-3.007-4.05-6.993-4.05-11.96v0c0-5.253 1.48-9.397 4.44-12.43v0c3-3.04 7.347-4.56 13.04-4.56zM49.37 73.58l-5.67-12.82c-0.487 0.033-1.007 0.05-1.56 0.05-0.553 0-1.377-0.043-2.47-0.13v0 12.7h-6.47v-32.64c2.28-0.293 5.08-0.44 8.4-0.44v0c4.527 0 7.9 0.833 10.12 2.5 2.22 1.667 3.33 4.243 3.33 7.73v0c0 2.7-1.017 5.01-3.05 6.93v0c-0.667 0.62-1.43 1.157-2.29 1.61v0l4.98 10.5c0.973 2.167 1.72 3.453 2.24 3.86v0l-0.12 0.12c-1.58-0.26-4.06-0.25-7.44 0.03zM42.07 46.06v0c-0.833 0-1.633 0.04-2.4 0.12v0 9.33c0.8 0.113 1.737 0.17 2.81 0.17 1.073 0 1.977-0.093 2.71-0.28 0.733-0.187 1.367-0.477 1.9-0.87v0c1.16-0.86 1.74-2.153 1.74-3.88 0-1.727-0.603-2.94-1.81-3.64v0c-1.12-0.633-2.77-0.95-4.95-0.95zM64.99 69.52c-1.48-1.413-2.647-3.113-3.5-5.1-0.853-1.987-1.28-4.163-1.28-6.53 0-2.367 0.397-4.61 1.19-6.73 0.8-2.113 1.94-3.977 3.42-5.59 1.48-1.607 3.27-2.887 5.37-3.84 2.1-0.953 4.453-1.43 7.06-1.43v0c4.487 0 8.27 1.417 11.35 4.25v0c3.287 3.027 4.93 7.11 4.93 12.25v0c0 4.98-1.693 9.123-5.08 12.43v0c-2.08 2.033-4.56 3.433-7.44 4.2v0c-1.42 0.373-3.077 0.56-4.97 0.56-1.9 0-3.847-0.39-5.84-1.17-1.993-0.78-3.73-1.88-5.21-3.3zM66.99 57.56v0c0 1.513 0.253 2.903 0.76 4.17 0.507 1.273 1.207 2.367 2.1 3.28v0c1.907 1.92 4.357 2.88 7.35 2.88v0c2.847 0 5.133-0.92 6.86-2.76v0c1.753-1.907 2.63-4.503 2.63-7.79v0c0-3.093-0.837-5.673-2.51-7.74v0c-1.807-2.213-4.28-3.32-7.42-3.32v0c-3.047 0-5.463 1.123-7.25 3.37v0c-1.68 2.1-2.52 4.737-2.52 7.91zM106.4 73.38h-6.38c0.1-0.553 0.15-1.157 0.15-1.81v0-30.66h4.88l12.94 20.36v-18.7c0-0.893-0.08-1.447-0.24-1.66v0h6.59c-0.08 0.653-0.12 1.37-0.12 2.15v0 30.32h-5.08l-12.74-19.56z" fill="#ffffff" fill-rule="nonzero" stroke="none" stroke-width="1" stroke-linecap="butt" stroke-linejoin="miter" stroke-miterlimit="10" stroke-dasharray="" stroke-dashoffset="0" font-family="none" font-weight="none" font-size="none" text-anchor="none" style="mix-blend-mode: normal" data-fill-palette-color="primary" opacity="1"></path><path xmlns="http://www.w3.org/2000/svg" d="M24.72 107.69c-1.2 0.953-2.75 1.69-4.65 2.21-1.907 0.52-4.247 0.78-7.02 0.78-2.773 0-5.723-0.253-8.85-0.76v0-32.17c3.16-0.507 5.897-0.76 8.21-0.76 2.32 0 4.227 0.22 5.72 0.66 1.487 0.44 2.703 1.033 3.65 1.78v0c1.853 1.447 2.78 3.323 2.78 5.63 0 2.3-0.837 4.207-2.51 5.72v0c1.98 0.62 3.517 1.793 4.61 3.52v0c0.993 1.547 1.49 3.26 1.49 5.14 0 1.88-0.273 3.487-0.82 4.82-0.547 1.333-1.417 2.477-2.61 3.43zM10.67 82.26v7.62c0.68 0.113 1.533 0.17 2.56 0.17 1.027 0 1.87-0.133 2.53-0.4 0.66-0.273 1.17-0.613 1.53-1.02v0c0.58-0.667 0.87-1.593 0.87-2.78v0c0-2.487-1.463-3.73-4.39-3.73v0c-1.24 0-2.273 0.047-3.1 0.14zM14.28 95.1v0c-1.367 0-2.57 0.09-3.61 0.27v0 9.6c1.14 0.293 2.337 0.44 3.59 0.44 1.253 0 2.357-0.15 3.31-0.45 0.947-0.307 1.747-0.72 2.4-1.24v0c1.32-1.073 1.98-2.44 1.98-4.1v0c0-3.013-2.557-4.52-7.67-4.52zM39.79 104.21h9.97c1.007 0 1.707-0.097 2.1-0.29v0l0.09 0.02-0.24 6.13h-18.29v-32.64c0.44 0.033 0.93 0.057 1.47 0.07v0l1.71 0.05c1.14 0.033 2.377 0.05 3.71 0.05v0c3.727 0 7.413-0.067 11.06-0.2v0c-0.18 1.433-0.27 3.347-0.27 5.74v0c0 0.26 0.017 0.457 0.05 0.59v0l-0.05 0.07c-0.847-0.247-2.05-0.37-3.61-0.37v0h-7.7v6.23h5.79c1.793 0 2.867-0.05 3.22-0.15v0l0.08 6.03c-0.78-0.08-1.79-0.12-3.03-0.12v0h-6.06zM70.19 83.07v27.15c-0.78-0.1-2.79-0.15-6.03-0.15v0h-0.78v-27h-4.84c-1.427 0-2.27 0.073-2.53 0.22-0.26 0.147-0.463 0.277-0.61 0.39v0l-0.08-0.03v-6.25l0.08-0.07c0.533 0.18 1.98 0.27 4.34 0.27v0h15.31c1.433 0 2.28-0.073 2.54-0.22 0.26-0.147 0.463-0.277 0.61-0.39v0l0.07 0.02v6.25l-0.07 0.08c-0.54-0.18-1.99-0.27-4.35-0.27v0zM88.18 103.04l-2.29 7.23c-1.4-0.133-3.037-0.2-4.91-0.2v0h-1.93l10.62-29.76c0.473-1.333 0.71-2.11 0.71-2.33 0-0.22-0.007-0.357-0.02-0.41v0l0.02-0.04c1.06 0.047 2.183 0.07 3.37 0.07v0c0.973 0 2.147-0.017 3.52-0.05v0l0.02 0.05c-0.033 0.067-0.05 0.157-0.05 0.27v0c0 0.307 0.243 1.127 0.73 2.46v0l10.84 29.81c-0.32-0.013-0.7-0.02-1.14-0.02v0c0 0-0.423-0.017-1.27-0.05v0c-0.407 0-0.773 0-1.1 0v0h-3.79l-2.29-7.03zM90.04 97.18h7.27l-3.68-11.35z" fill="#ffffff" fill-rule="nonzero" stroke="none" stroke-width="1" stroke-linecap="butt" stroke-linejoin="miter" stroke-miterlimit="10" stroke-dasharray="" stroke-dashoffset="0" font-family="none" font-weight="none" font-size="none" text-anchor="none" style="mix-blend-mode: normal" data-fill-palette-color="primary" opacity="1"></path></g></svg></g></svg></g></svg></g></svg></g></svg></g><defs></defs></svg><rect width="286.98379112104755" height="247.2" fill="none" stroke="none" visibility="hidden"></rect></g></svg></g></svg>